<?xml version="1.0" encoding="utf-8"?>
<!-- Generator: Adobe Illustrator 16.0.0, SVG Export Plug-In . SVG Version: 6.00 Build 0)  -->
<!DOCTYPE svg PUBLIC "-//W3C//DTD SVG 1.1//EN" "http://www.w3.org/Graphics/SVG/1.1/DTD/svg11.dtd">
<svg version="1.1" xmlns="http://www.w3.org/2000/svg" xmlns:xlink="http://www.w3.org/1999/xlink" viewBox="0 0 256 256" enable-background="new 0 0 256 256" xml:space="preserve">
<g id="Layer_1">
	<rect fill="#800000" width="256" height="64"/>
	<rect y="64" fill="#DC143C" width="256" height="64"/>
	<rect y="128" fill="#FF4500" width="256" height="64"/>
	<rect y="192" fill="#F88017" width="256" height="64"/>
</g>
<g id="Layer_2">
	<path fill-rule="evenodd" clip-rule="evenodd" fill="#F1F2F2" d="M63.958,79.373c0-9.009,0-17.62,0-26.88
		c3.291,0,9.973-0.631,13.139-0.335c5.174,0.483,10.329,1.231,15.469,2.02c9.21,1.413,18.061,4.144,26.723,7.535
		c11.894,4.657,22.907,10.917,33.027,18.659c7.968,6.096,15.254,12.942,21.748,20.667c15.01,17.852,24.991,38.14,30.188,60.826
		c2.129,9.294,3.066,18.742,3.344,28.26c0.076,2.625-0.088,2.758-2.633,2.758c-7.488,0.002-14.979-0.055-22.468,0.021
		c-1.771,0.018-2.37-0.412-2.427-2.323c-0.91-30.6-12.002-56.907-33.723-78.533c-8.982-8.942-19.336-16.128-30.799-21.579
		c-10.742-5.109-22.004-8.601-33.881-9.853C77.029,80.126,68.906,79.778,63.958,79.373z"/>
	<path fill-rule="evenodd" clip-rule="evenodd" fill="#F1F2F2" d="M63.958,126.413c0-2.52-0.396-5.611,0-7.56
		c0-6.613,0.397-13.31,0.397-19.612c13.174,0.3,25.948,1.991,38.102,6.902c10.527,4.254,19.883,10.318,28.204,18.096
		c8.679,8.112,15.603,17.456,20.665,28.157c4.854,10.262,7.775,21.068,8.516,32.428c0.136,2.088,0.219,4.182,0.351,6.271
		c0.079,1.256-0.468,1.742-1.726,1.738c-8.118-0.031-16.238-0.047-24.354-0.002c-1.713,0.01-1.677-1.023-1.688-2.209
		c-0.098-9.975-2.545-19.418-7.265-28.131c-10.312-19.04-26.132-30.666-47.597-34.307c-2.74-0.465-5.542-0.624-8.323-0.761"/>
	<path fill-rule="evenodd" clip-rule="evenodd" fill="#F1F2F2" d="M65,172.414c10.819-0.649,19.336,9.045,19.114,18.965
		c-0.243,10.841-8.324,19.066-19.175,19.033c-10.656-0.032-18.809-8.369-18.937-19.121C45.877,180.775,54.744,171.866,65,172.414z"
		/>
</g>
</svg>
