<?xml version="1.0" encoding="UTF-8"?>
<!-- Generated by Pixelmator Pro 2.4.1 -->
<svg width="500" height="500" viewBox="0 0 500 500" xmlns="http://www.w3.org/2000/svg" xmlns:xlink="http://www.w3.org/1999/xlink">
    <g id="7YdWTElWPi911nsuSLmZj">
        <path id="Path" fill="#800000" stroke="none" d="M 0.5 0.494995 L 499.5 0.494995 L 499.5 125.244995 L 0.5 125.244995 Z"/>
    </g>
    <g id="USOOw0QDMk-YDqE4-YCPm">
        <path id="path1" fill="#dc143c" stroke="none" d="M 0.5 125.244995 L 499.5 125.244995 L 499.5 249.994995 L 0.5 249.994995 Z"/>
    </g>
    <g id="-snenCjmIaIK1D9vGBN11">
        <path id="path2" fill="#ff4500" stroke="none" d="M 0.5 249.994995 L 499.5 249.994995 L 499.5 374.744995 L 0.5 374.744995 Z"/>
    </g>
    <g id="Gigjivx6au2PYfEmIUda">
        <path id="path3" fill="#ff8c00" stroke="none" d="M 0.5 374.744995 L 499.5 374.744995 L 499.5 499.494995 L 0.5 499.494995 Z"/>
    </g>
    <g id="CzCtIc9CBJCye4DsplGCN">
        <path id="path4" fill="#ffffff" stroke="none" visibility="hidden" d="M 313.602692 75.828339 L 329.561493 55.092133 L 398.581482 60.025482 L 408.535278 74.45166 L 365.770111 94.41037 Z M 362.176605 103.121979 L 310.565308 84.73587 L 314.917419 243.291565 L 408.847473 263.551636 Z M 315.18277 252.99147 L 318.423279 371.054993 L 375.374603 372.726105 L 409.395844 273.31839 Z M 321.983398 21.300568 L 309.432098 43.475494 L 310.024261 65.032898 L 322.622955 48.663025 Z M 137.294693 269.18277 L 114.803574 322.530365 L 189.316116 364.921631 L 215.704865 261.059235 Z M 113.550858 412.728271 L 143.652176 412.728271 L 184.575897 373.06189 L 113.550858 332.654327 Z M 90.598465 302.74646 L 111.578339 305.928833 L 124.627167 274.984924 Z M 115.643356 422.14917 L 137.294693 479.692902 L 157.413376 479.692902 L 141.94841 422.14917 Z M 225.690277 260.031555 L 198.386398 367.539581 L 308.991302 370.783691 L 305.721802 251.743683 Z M 321.405853 479.697571 L 338.76709 479.697571 L 372.182007 382.066162 L 318.685608 380.496796 Z"/>
    </g>
</svg>
